<?xml version="1.0"?>
<svg xmlns="http://www.w3.org/2000/svg" viewBox="0 0 64 64" width="512" height="512"><g id="Airplane"><path d="M9.365,11.061l-1.992.554,20.227,15h0c.61-.68,1.23-1.34,1.88-1.99l9.088-9.088L17.057,10.844A16.006,16.006,0,0,0,9.365,11.061Z" style="fill:#006df0"/><path d="M39.318,34.579c-.6.6-1.228,1.2-1.873,1.763L53.092,57.335l.51-1.79a16,16,0,0,0,.221-7.917l-5.08-22.471L39.38,34.52C39.36,34.54,39.338,34.558,39.318,34.579Z" style="fill:#006df0"/><path d="M57.9,3.86l-1.95.24A19.989,19.989,0,0,0,44.29,9.81l-5.722,5.722h0l-9.092,9.092c-.644.643-1.266,1.308-1.874,1.987l0,0c-.92,1.02-1.79,2.08-2.62,3.18L16.16,41.44l-.76,1-3.25,4.27-1.72,2.28a2.021,2.021,0,0,0,.17,2.63l1.78,1.78a2.021,2.021,0,0,0,2.63.17l2.15-1.62,4.15-3.15,1-.75,11.9-9.03c1.11-.84,2.2-1.74,3.23-2.68.648-.561,1.267-1.153,1.878-1.761.018-.019.039-.036.057-.055l9.368-9.368h0L54.19,19.71A19.989,19.989,0,0,0,59.9,8.05l.24-1.95A2.007,2.007,0,0,0,57.9,3.86Z" style="fill:#c2dff6"/><path d="M27.6,26.61h0l0,0c.608-.679,1.23-1.344,1.874-1.987l9.092-9.092h0L29.48,24.62C28.83,25.27,28.21,25.93,27.6,26.61Z" style="fill:#ffe2bd"/><path d="M39.375,34.524c-.018.019-.039.036-.057.055.02-.021.042-.039.062-.059l9.363-9.363h0Z" style="fill:#ffe2bd"/><polygon points="17.16 51.95 22.1 58.87 22.31 48.05 21.31 48.8 17.16 51.95" style="fill:#006df0"/><polygon points="16.16 41.44 4.42 41.19 12.15 46.71 15.4 42.44 16.16 41.44" style="fill:#006df0"/><path d="M17.858,44.728l-4.243,4.243a1,1,0,1,0,1.414,1.414l4.243-4.243a1,1,0,0,0-1.414-1.414Z" style="fill:#006df0"/><path d="M7.213,33.071a1,1,0,0,0,1.414,0l8.536-8.535a1,1,0,0,0-1.414-1.414L7.213,31.657A1,1,0,0,0,7.213,33.071Z" style="fill:#ffaf46"/><path d="M23.515,9.373a1,1,0,0,0,.707-.293l5.485-5.486A1,1,0,1,0,28.293,2.18L22.808,7.666a1,1,0,0,0,.707,1.707Z" style="fill:#ff9811"/><path d="M8.322,19.979a1,1,0,1,0-1.414-1.414L2.373,23.1a1,1,0,1,0,1.414,1.414Z" style="fill:#ffaf46"/><path d="M46.021,54.749l-5.486,5.485a1,1,0,1,0,1.414,1.414l5.486-5.485a1,1,0,0,0-1.414-1.414Z" style="fill:#ffaf46"/><path d="M41.707,47.991a1,1,0,0,0-1.414,0L28.636,59.648a1,1,0,1,0,1.414,1.414L41.707,49.405A1,1,0,0,0,41.707,47.991Z" style="fill:#ffaf46"/><path d="M61.707,41.293a1,1,0,0,0-1.414,0l-4,4a1,1,0,1,0,1.414,1.414l4-4A1,1,0,0,0,61.707,41.293Z" style="fill:#ff9811"/></g></svg>
